<?xml version="1.0" encoding="UTF-8" standalone="no"?>
<!-- Created with Inkscape (http://www.inkscape.org/) -->

<svg
   width="0.66035008in"
   height="0.10081851in"
   viewBox="0 0 16.772893 2.56079"
   version="1.1"
   id="svg1"
   xml:space="preserve"
   xmlns="http://www.w3.org/2000/svg"
   xmlns:svg="http://www.w3.org/2000/svg"><defs
     id="defs1" /><g
     id="layer3"
     style="display:none"
     transform="translate(-101.893,-54.960468)"><path
       style="fill:none;stroke:#ad00b1;stroke-width:0.1;stroke-linecap:round;stroke-dasharray:0.799999, 0.2, 0.1, 0.2;stroke-dashoffset:0;stroke-opacity:1"
       d="M 110.05,50.049853 V 178.45013"
       id="path11" /></g><g
     id="layer2"
     transform="translate(-101.893,-54.960468)"><g
       id="logo"
       style="display:inline"><text
         xml:space="preserve"
         style="font-style:normal;font-variant:normal;font-weight:normal;font-stretch:normal;font-size:1.97069px;font-family:'Yu Gothic';-inkscape-font-specification:'Yu Gothic';writing-mode:lr-tb;direction:ltr;fill:#ff0000;fill-opacity:1;stroke:#ff0000;stroke-width:0.162;stroke-linecap:round;stroke-dasharray:none;stroke-opacity:1"
         x="96.971039"
         y="61.168194"
         id="text1"
         transform="scale(1.0649011,0.93905434)"><tspan
           id="tspan1"
           style="fill:#ff0000;fill-opacity:1;stroke:#ff0000;stroke-width:0.162;stroke-dasharray:none;stroke-opacity:1"
           x="96.971039"
           y="61.168194">LF MAGNETICS</tspan></text><path
         style="display:inline;fill:#ff0000;fill-opacity:1;stroke-width:0.00950824;stroke-dasharray:none"
         d="m 101.96607,55.005522 c 4.4e-4,5.4e-4 0.008,0.1159 0.01,0.151352 10e-5,0.0046 7.1e-4,0.01601 10e-4,0.02532 7e-4,0.0093 0.001,0.02106 0.001,0.02611 3e-4,0.0053 10e-4,0.0096 0.002,0.01015 0.001,4.92e-4 0.001,0.0013 5.6e-4,0.0023 -0.003,0.0018 0.002,0.111561 0.006,0.113641 10e-4,6.81e-4 10e-4,0.002 5.6e-4,0.0023 -0.001,2.77e-4 -0.001,0.01217 -7e-4,0.0266 7e-4,0.01441 10e-4,0.03959 0.003,0.056 7.1e-4,0.01635 10e-4,0.03055 0.002,0.03147 0.001,0.0016 0.09,-0.07548 0.097,-0.08398 0.001,-0.0016 0.0185,-0.01739 0.0384,-0.03492 0.0198,-0.01754 0.0384,-0.03492 0.0413,-0.03838 0.002,-0.0035 0.006,-0.0053 0.006,-0.0042 5.7e-4,0.0013 -10e-4,0.01383 -0.003,0.02792 -10e-4,0.01411 -0.005,0.02647 -0.005,0.02752 -1.1e-4,0.002 -0.006,0.03487 -0.009,0.04726 -7.2e-4,0.0043 -0.002,0.01521 -0.003,0.02436 -0.001,0.0093 -0.003,0.02067 -0.005,0.02566 -0.001,0.0048 -0.002,0.01427 -0.003,0.02067 -7.2e-4,0.0062 -0.006,0.03354 -0.01,0.06036 -0.0123,0.06936 -0.0175,0.101418 -0.0208,0.121679 -0.001,0.0096 -0.005,0.02816 -0.008,0.04091 -10e-4,0.01319 -0.002,0.0237 -7.2e-4,0.02423 0.001,4.45e-4 0.001,0.0012 -4.5e-4,0.0013 -10e-4,5.01e-4 -0.005,0.0105 -0.008,0.02371 -0.001,0.01281 -0.005,0.02468 -0.005,0.02638 -0.001,0.0048 -0.006,0.03024 -0.008,0.04454 -7.1e-4,0.0072 -0.003,0.02151 -0.005,0.03177 -10e-4,0.0105 -0.005,0.02317 -0.005,0.02872 -7.1e-4,0.0054 -0.001,0.01004 -0.002,0.0098 -7e-4,-6.9e-5 -0.001,-0.01106 -0.003,-0.02435 -0.001,-0.01335 -0.002,-0.02462 -0.002,-0.02511 -4e-4,-4.75e-4 -7e-4,-0.0075 -10e-4,-0.01597 -7.2e-4,-0.0086 -0.002,-0.01563 -0.005,-0.01627 -10e-4,-4.92e-4 -10e-4,-0.0012 -7.1e-4,-0.0012 0.003,-5.8e-5 0.001,-0.01881 -0.001,-0.02001 -10e-4,-5.81e-4 -10e-4,-0.0013 2.6e-4,-0.0012 10e-4,-3.22e-4 10e-4,-0.0045 10e-4,-0.0093 -7e-4,-0.0049 -0.003,-0.02863 -0.006,-0.0527 -0.002,-0.02401 -0.006,-0.04441 -0.006,-0.04533 -7e-4,-10e-4 -5.4e-4,-0.0023 4.3e-4,-0.0031 7e-4,-8.47e-4 5.5e-4,-0.0041 -5.5e-4,-0.0068 -7e-4,-0.0029 -0.001,-0.0064 -0.001,-0.0077 2.3e-4,-0.0012 -10e-4,-0.01778 -0.003,-0.03705 -10e-4,-0.01928 -0.005,-0.04167 -0.006,-0.04986 -7e-4,-0.0084 -10e-4,-0.01533 -0.002,-0.016 -0.001,-0.0022 -0.0125,0.005 -0.0717,0.04903 -0.0331,0.02495 -0.0613,0.0449 -0.0624,0.04481 -7.1e-4,-8.6e-5 0.001,-0.03953 0.008,-0.08763 0.005,-0.04815 0.0123,-0.121742 0.0163,-0.163594 0.005,-0.04186 0.006,-0.07648 0.005,-0.07695 -0.001,-5.83e-4 -0.001,-8.47e-4 3.6e-4,-0.0012 10e-4,-3.21e-4 0.003,-0.0036 0.002,-0.0081 2.4e-4,-0.0038 0.005,-0.04602 0.009,-0.09328 0.005,-0.04727 0.008,-0.08634 0.006,-0.08679 -0.001,-5.82e-4 -0.001,-7.76e-4 2.4e-4,-0.0012 10e-4,-3.2e-4 0.005,-0.02622 0.009,-0.05779 0.002,-0.03156 0.006,-0.05696 0.006,-0.05637 z m 1.04286,-0.04472 c 4.5e-4,5.39e-4 10e-4,0.0062 10e-4,0.01244 7e-4,0.0223 0.002,0.04707 0.005,0.06937 7e-4,0.01251 10e-4,0.0249 10e-4,0.02757 -1.7e-4,0.01111 0.002,0.02838 0.005,0.02909 10e-4,6.28e-4 7e-4,9.87e-4 -1e-5,0.0018 -0.001,8.46e-4 -7.1e-4,0.0435 10e-4,0.07787 3.5e-4,0.0034 0.001,0.03151 0.005,0.06268 10e-4,0.03116 0.005,0.07247 0.006,0.0918 10e-4,0.01933 0.002,0.04326 0.002,0.05317 4.4e-4,0.0099 0.001,0.01808 0.002,0.01822 7e-4,4e-5 0.021,-0.01739 0.0443,-0.03889 0.0233,-0.02137 0.055,-0.05063 0.0706,-0.06467 0.0156,-0.01405 0.0373,-0.03404 0.0483,-0.04416 l 0.0199,-0.01851 -0.001,0.01639 c -0.002,0.01905 -0.0149,0.09194 -0.025,0.148776 -0.003,0.02179 -0.008,0.04625 -0.009,0.05433 -7.1e-4,0.0081 -10e-4,0.01474 -10e-4,0.01483 -4.4e-4,2.2e-5 -0.001,0.0081 -0.003,0.01743 -0.001,0.0096 -0.005,0.02888 -0.008,0.04298 -10e-4,0.0141 -0.006,0.03579 -0.009,0.04818 -10e-4,0.01243 -0.002,0.02293 -10e-4,0.02338 10e-4,6.26e-4 10e-4,0.0014 4e-5,0.0018 -0.003,0.002 -0.0149,0.07139 -0.0111,0.07247 10e-4,4.92e-4 10e-4,0.0013 -5.1e-4,0.0013 -10e-4,5.47e-4 -0.005,0.0095 -0.006,0.02241 -10e-4,0.01209 -0.008,0.04348 -0.0111,0.06984 -0.005,0.02637 -0.008,0.05013 -0.008,0.05281 1.1e-4,0.0027 -5.2e-4,0.0041 -0.001,0.0031 -10e-4,-0.0016 -0.008,-0.03426 -0.006,-0.03808 7.1e-4,-0.0064 -0.003,-0.02703 -0.006,-0.02786 -10e-4,-4.93e-4 -10e-4,-0.0012 -4.4e-4,-0.0014 0.001,-2.74e-4 0.001,-0.0046 0.001,-0.0097 -5.1e-4,-0.0051 -0.005,-0.04098 -0.01,-0.07958 -0.005,-0.03859 -0.01,-0.08113 -0.0111,-0.09441 -0.001,-0.01328 -0.005,-0.0246 -0.006,-0.02511 -0.001,-4.92e-4 -0.001,-0.0012 -6.6e-4,-0.0022 10e-4,-5.91e-4 7.2e-4,-0.01405 -6.7e-4,-0.02989 -0.001,-0.02226 -0.003,-0.02822 -0.006,-0.02612 -0.001,0.0014 -0.0171,0.0124 -0.0335,0.02441 -0.0165,0.012 -0.0446,0.03278 -0.0626,0.046 -0.018,0.01322 -0.0333,0.02424 -0.0343,0.02416 -7.1e-4,-8.6e-5 2.1e-4,-0.02143 0.002,-0.04736 0.002,-0.02909 0.003,-0.04762 10e-4,-0.04828 -10e-4,-9.18e-4 -10e-4,-0.0012 5.6e-4,-0.0013 0.005,-6.46e-4 0.009,-0.03352 0.005,-0.03479 -0.001,-6.26e-4 -0.001,-0.0014 -5e-5,-0.0018 0.001,-10e-4 0.008,-0.04113 0.0302,-0.28321 0.0186,-0.193937 0.0208,-0.213106 0.022,-0.211538 z m -1.06159,1.004232 c 0.0225,3.4e-4 0.0413,-5.91e-4 0.0418,-0.002 5.6e-4,-0.0013 7.2e-4,-0.0013 7.2e-4,-9.3e-5 1.9e-4,0.0017 0.0148,0.0026 0.0329,0.0027 0.0182,9.2e-5 0.0339,2.56e-4 0.0348,3.62e-4 0.002,2.6e-4 0.0431,4.71e-4 0.0582,1.59e-4 0.008,-1.62e-4 0.0182,-9.3e-5 0.0232,1.52e-4 0.005,3.89e-4 0.0257,4.54e-4 0.0464,4.85e-4 0.0207,-3.1e-5 0.0381,5.97e-4 0.0387,0.0013 0.001,0.0016 0.001,0.008 7e-4,0.06241 -3.3e-4,0.05698 -4.5e-4,0.07043 -6.8e-4,0.07421 -1.7e-4,0.002 -1.5e-4,0.01661 -4e-5,0.03245 1.1e-4,0.01584 1.1e-4,0.03046 4e-5,0.03254 -1.7e-4,0.002 -3.1e-4,0.01195 -4.6e-4,0.02202 l -3e-4,0.01829 -0.0111,7.9e-5 c -0.006,-1.13e-4 -0.0111,0.0013 -0.0123,0.0027 -4.1e-4,0.0012 -0.001,0.0014 -0.001,3.66e-4 -7.2e-4,-0.002 -0.0148,-0.0024 -0.10781,-0.0035 -0.0203,-2.48e-4 -0.0356,9.16e-4 -0.036,0.0027 -7.1e-4,0.0016 -0.001,0.0018 -0.001,2.76e-4 -5.9e-4,-0.0041 -0.0164,-0.0046 -0.0177,-4.18e-4 -5e-4,0.0022 -0.001,0.0021 -0.001,3.65e-4 -6.9e-4,-0.0039 -0.0393,-0.0038 -0.0405,-2.4e-5 -6.2e-4,0.0014 -0.001,0.0016 -0.001,1.41e-4 -2.1e-4,-0.0017 -0.005,-0.0031 -0.0111,-0.0033 -0.0149,-5.09e-4 -0.0667,-6.54e-4 -0.0736,-1.75e-4 -0.005,5.59e-4 -0.006,-0.0016 -0.005,-0.02789 7.2e-4,-0.05859 7.2e-4,-0.06366 -0.001,-0.06588 -7e-4,-9.87e-4 -0.001,-0.0024 -1.2e-4,-0.0027 0.002,-4.63e-4 0.002,-0.06767 2.5e-4,-0.0696 -0.001,-8.45e-4 -0.001,-0.0018 1e-4,-0.002 10e-4,-8.45e-4 0.002,-0.02035 10e-4,-0.05353 -1.6e-4,-0.01073 6.1e-4,-0.0202 0.001,-0.02107 0.001,-8.46e-4 0.0203,-0.0013 0.0428,-9.88e-4 z m -0.0236,0.30902 c 0.01,-3.4e-5 0.0264,8.5e-5 0.0368,2.72e-4 0.026,4.75e-4 0.0243,4.46e-4 0.0455,3.78e-4 0.0111,1.8e-4 0.0201,3.2e-5 0.0211,1.91e-4 7.2e-4,8.7e-5 0.0207,2.54e-4 0.0437,2.67e-4 0.0232,1.1e-5 0.05,2.96e-4 0.0597,6.19e-4 0.01,4.93e-4 0.0187,-7.77e-4 0.0198,-0.0027 7.1e-4,-0.0018 0.001,-0.002 0.001,-7.05e-4 4.7e-4,0.0033 0.0242,0.0041 0.0272,9.87e-4 0.001,-0.0012 0.001,-0.0012 0.001,-1.42e-4 3.8e-4,0.0016 0.008,0.0023 0.0176,0.0019 0.01,-4.28e-4 0.0186,2.35e-4 0.0204,0.0012 0.001,0.0012 0.003,0.0092 0.002,0.01964 -1.7e-4,0.0099 -2.2e-4,0.02493 -1.6e-4,0.03344 2e-4,0.02653 -1.6e-4,0.09144 -5.1e-4,0.0934 -2.9e-4,0.002 -7.1e-4,0.07867 -7.1e-4,0.148315 2e-5,0.0241 -1.9e-4,0.04461 -3.9e-4,0.0457 -6.6e-4,0.0024 -7e-4,0.05603 -7e-4,0.115027 -1e-5,0.02652 3e-5,0.06276 0,0.08043 -4e-5,0.03481 0.002,0.05523 0.0111,0.086 0.0155,0.05846 0.0325,0.0911 0.0719,0.13798 0.0313,0.03706 0.0594,0.06073 0.0978,0.0819 0.0536,0.02976 0.12614,0.04558 0.18859,0.04128 0.0512,-0.0035 0.093,-0.01585 0.14417,-0.04265 0.0259,-0.01329 0.081,-0.05948 0.10037,-0.08392 0.0139,-0.01718 0.0259,-0.03442 0.0307,-0.04396 0.001,-0.0029 0.005,-0.0096 0.008,-0.01516 0.0148,-0.02592 0.0289,-0.06885 0.0344,-0.103737 0.005,-0.02808 0.005,-0.03757 0.005,-0.08543 4e-5,-0.01863 2.2e-4,-0.0347 3.6e-4,-0.03574 1.5e-4,-10e-4 2.5e-4,-0.0199 1.9e-4,-0.04193 -7e-5,-0.02203 0,-0.04095 1.4e-4,-0.04199 5e-5,-0.0019 3.5e-4,-0.04974 1.9e-4,-0.08161 1.2e-4,-0.0065 -7.1e-4,-0.01287 -0.001,-0.01371 -0.001,-8.47e-4 -0.001,-0.0018 1.2e-4,-0.002 0.002,-4.59e-4 0.003,-0.08719 7e-4,-0.0891 -0.001,-8.46e-4 -0.001,-0.0018 1.3e-4,-0.002 10e-4,-6.76e-4 0.002,-0.03545 0.002,-0.114328 -1.1e-4,-0.0091 2e-4,-0.03102 3.5e-4,-0.0492 l 2.5e-4,-0.03306 0.02,-6.5e-5 c 0.0431,-1.67e-4 0.11305,1.76e-4 0.13286,6.2e-4 0.0226,5.15e-4 0.0312,-4.21e-4 0.0322,-0.0036 7.1e-4,-0.0016 7.1e-4,-0.0018 7.1e-4,-2.49e-4 -3e-5,0.0036 0.0111,0.0052 0.0148,0.002 10e-4,-0.0013 0.002,-0.0013 0.002,-3.24e-4 -2.6e-4,0.0012 0.0111,0.0022 0.0247,0.0022 0.0137,3.9e-5 0.0339,2.42e-4 0.0446,5.03e-4 0.0111,2.56e-4 0.0256,2.78e-4 0.033,1.5e-4 0.008,-3.85e-4 0.0139,3.69e-4 0.0147,0.0012 7.1e-4,0.001 10e-4,0.02071 7.1e-4,0.0442 -2.6e-4,0.02349 -6.3e-4,0.06384 -7.1e-4,0.08969 -1.9e-4,0.02584 -4e-4,0.05058 -4.5e-4,0.05504 5e-5,0.0046 -4e-5,0.02617 -2e-5,0.04825 2e-5,0.02207 -7e-5,0.04103 -2.3e-4,0.04207 -2.7e-4,0.002 -7.1e-4,0.08757 -7.1e-4,0.142533 -10e-6,0.01898 -7e-5,0.04306 -1.9e-4,0.05345 -6e-5,0.0105 -3e-4,0.0343 -4.3e-4,0.05309 -7e-4,0.123363 -0.0299,0.232046 -0.0898,0.337092 -0.008,0.01224 -0.0134,0.02284 -0.0144,0.02364 -7e-4,8.45e-4 -0.006,0.0077 -0.0111,0.01533 -0.005,0.0078 -0.0123,0.01818 -0.016,0.0228 -0.003,0.005 -0.0136,0.01688 -0.0211,0.02705 -0.0205,0.02647 -0.0776,0.08251 -0.10393,0.102081 -0.048,0.03555 -0.10522,0.07033 -0.13836,0.08371 -0.006,0.0021 -0.0192,0.0079 -0.0299,0.01229 -0.0498,0.02061 -0.12177,0.03819 -0.17617,0.04294 -0.0533,0.0048 -0.0756,0.0047 -0.12915,-7e-5 -0.0872,-0.0078 -0.17386,-0.03265 -0.243,-0.06994 -0.0123,-0.0062 -0.0245,-0.01306 -0.0286,-0.015 -0.0111,-0.0052 -0.0577,-0.03686 -0.0752,-0.05073 -0.0364,-0.02886 -0.0443,-0.03595 -0.0746,-0.06776 -0.11784,-0.122865 -0.1837,-0.282247 -0.18549,-0.448544 -4e-4,-0.03713 -3.5e-4,-0.120769 8e-5,-0.135314 5.1e-4,-0.01662 0.001,-0.163464 0.001,-0.239312 5e-5,-0.01474 8e-5,-0.0285 1.5e-4,-0.0305 1.2e-4,-0.002 1.2e-4,-0.01233 4e-5,-0.02294 -4e-5,-0.01061 0,-0.02088 1.4e-4,-0.02285 1.1e-4,-0.002 3.2e-4,-0.02501 4.8e-4,-0.05111 1.7e-4,-0.0261 10e-4,-0.04814 10e-4,-0.04894 0.001,-8.46e-4 0.01,-0.0013 0.0202,-0.0016 z m 1.0153,-0.303362 c 0.01,7.1e-5 0.022,-5.2e-5 0.0276,8.3e-5 0.006,7.3e-5 0.0244,2.65e-4 0.0421,3.59e-4 0.0178,8.8e-5 0.0332,2.74e-4 0.0342,3.81e-4 0.001,3.98e-4 0.0343,3.07e-4 0.0553,2.05e-4 0.005,7.5e-5 0.0166,6.6e-5 0.0276,1.27e-4 0.0111,1.12e-4 0.02,-7.75e-4 0.02,-0.002 2.4e-4,-0.0012 10e-4,-9.87e-4 0.002,5.33e-4 0.001,0.0016 0.0149,0.0026 0.0303,0.0024 0.0437,-2.5e-4 0.059,3.47e-4 0.0606,0.0022 7e-4,10e-4 10e-4,0.0054 7e-4,0.0096 -0.001,0.01795 -3e-4,0.0772 0.001,0.07848 10e-4,8.46e-4 5.6e-4,0.0013 -7.2e-4,0.0017 -0.001,3.67e-4 -0.001,10e-4 -0.001,0.002 7e-4,10e-4 7e-4,0.0085 5e-4,0.01689 -2.9e-4,0.0086 -7.1e-4,0.04165 -0.001,0.07383 l -3.5e-4,0.05855 -0.039,-8.6e-5 c -0.0213,-3.1e-5 -0.0508,-2.3e-4 -0.0654,-4.42e-4 -0.0147,-2.08e-4 -0.0327,-2.32e-4 -0.0402,-6.6e-5 -0.008,2.6e-5 -0.0171,1.65e-4 -0.0211,8e-5 -0.005,-2.11e-4 -0.0123,-3.46e-4 -0.0181,-5.17e-4 -0.006,1.09e-4 -0.0281,-2.33e-4 -0.0497,-1.83e-4 -0.0373,1.09e-4 -0.0453,5e-6 -0.0752,-9.86e-4 l -0.013,-4e-4 3e-5,-0.01889 c 1e-5,-0.0104 1.3e-4,-0.02332 2.3e-4,-0.02873 3.1e-4,-0.01745 7e-4,-0.07995 7e-4,-0.123087 8e-5,-0.02306 4e-4,-0.04726 7.2e-4,-0.05371 2.3e-4,-0.0066 9e-5,-0.01239 -5.8e-4,-0.01322 -0.002,-0.0033 0.005,-0.005 0.0215,-0.0052 z"
         id="path20" /></g></g><g
     id="layer1"
     style="display:inline"
     transform="translate(-101.893,-54.960468)"><rect
       style="display:inline;fill:none;stroke:#0000ff;stroke-width:0.0997117;stroke-linecap:round;stroke-dasharray:none;stroke-opacity:1"
       id="rect2"
       width="19.900288"
       height="128.40028"
       x="100.04985"
       y="50.049854" /></g></svg>
