<?xml version="1.0" encoding="UTF-8" standalone="no"?>
<!-- Created with Inkscape (http://www.inkscape.org/) -->

<svg
   width="0.66259789in"
   height="0.10024952in"
   viewBox="0 0 16.829987 2.5463378"
   version="1.1"
   id="svg1"
   xml:space="preserve"
   xmlns="http://www.w3.org/2000/svg"
   xmlns:svg="http://www.w3.org/2000/svg"><defs
     id="defs1" /><g
     id="layer3"
     style="display:none"
     transform="translate(-101.89008,-54.960468)"><path
       style="fill:none;stroke:#ad00b1;stroke-width:0.1;stroke-linecap:round;stroke-dasharray:0.799999, 0.2, 0.1, 0.2;stroke-dashoffset:0;stroke-opacity:1"
       d="M 110.05,50.049853 V 178.45013"
       id="path11" /></g><g
     id="layer2"
     transform="translate(-101.89008,-54.960468)"
     style="display:inline"><path
       style="font-size:1.97069px;font-family:'Yu Gothic';-inkscape-font-specification:'Yu Gothic';display:inline;fill:#ff0000;stroke:#ff0000;stroke-width:0.162;stroke-linecap:round"
       d="m 118.60539,56.338765 -0.13833,0.03886 c -0.058,-0.165058 -0.17557,-0.247588 -0.35251,-0.247588 -0.10998,0 -0.19503,0.0247 -0.25515,0.07409 -0.0526,0.04277 -0.0789,0.09819 -0.0789,0.166265 0,0.08072 0.0286,0.141865 0.0861,0.183432 0.0498,0.03494 0.13317,0.06506 0.25003,0.09035 l 0.0614,0.01536 c 0.18922,0.04217 0.31697,0.09789 0.38324,0.167167 0.0519,0.05361 0.0778,0.128011 0.0778,0.223191 0,0.121685 -0.0512,0.216565 -0.1537,0.284636 -0.0916,0.06084 -0.21245,0.09127 -0.36274,0.09127 -0.14483,0 -0.26506,-0.03223 -0.3607,-0.09669 -0.084,-0.05723 -0.14414,-0.136141 -0.18035,-0.236745 l 0.13834,-0.04609 c 0.0553,0.184938 0.18886,0.277407 0.40066,0.277407 0.13253,0 0.23123,-0.02771 0.29614,-0.08313 0.0519,-0.04518 0.0778,-0.105121 0.0778,-0.179818 0,-0.08313 -0.0277,-0.14548 -0.0831,-0.187046 -0.0532,-0.03976 -0.14717,-0.0747 -0.28178,-0.104818 l -0.0532,-0.01355 c -0.17283,-0.03916 -0.29169,-0.09187 -0.35659,-0.158131 -0.0534,-0.05482 -0.08,-0.128617 -0.08,-0.221384 0,-0.104215 0.0455,-0.189456 0.13628,-0.25572 0.0861,-0.06265 0.19811,-0.09398 0.33611,-0.09398 0.24524,0 0.40981,0.104231 0.49315,0.312662 z"
       id="path58" /><path
       style="font-size:1.97069px;font-family:'Yu Gothic';-inkscape-font-specification:'Yu Gothic';display:inline;fill:#ff0000;stroke:#ff0000;stroke-width:0.162;stroke-linecap:round"
       d="m 117.34398,56.400207 -0.13629,0.03705 c -0.0587,-0.203613 -0.19263,-0.305419 -0.40168,-0.305419 -0.15233,0 -0.27256,0.05813 -0.36069,0.174397 -0.0813,0.106023 -0.12194,0.24578 -0.12194,0.419272 0,0.198191 0.0523,0.351503 0.15677,0.459936 0.0868,0.08976 0.19539,0.134637 0.32586,0.134637 0.21997,0 0.35864,-0.103613 0.41603,-0.31084 l 0.13424,0.04428 c -0.0874,0.248191 -0.27155,0.372286 -0.55232,0.372286 -0.19469,0 -0.35045,-0.06928 -0.46726,-0.207829 -0.10657,-0.125902 -0.15985,-0.289154 -0.15985,-0.489755 0,-0.231323 0.0687,-0.411742 0.20596,-0.541259 0.1134,-0.107228 0.25378,-0.160842 0.42115,-0.160842 0.28718,0.0049 0.41762,0.143904 0.54002,0.374086 z"
       id="path57" /><path
       style="font-size:1.97069px;font-family:'Yu Gothic';-inkscape-font-specification:'Yu Gothic';display:inline;fill:#ff0000;stroke:#ff0000;stroke-width:0.162;stroke-linecap:round"
       d="m 115.79258,56.050512 v 1.349084 h -0.13833 v -1.349084 z"
       id="path56" /><path
       style="font-size:1.97069px;font-family:'Yu Gothic';-inkscape-font-specification:'Yu Gothic';fill:#ff0000;stroke:#ff0000;stroke-width:0.162;stroke-linecap:round"
       d="m 115.31814,56.050512 v 0.105722 h -0.49287 v 1.243362 h -0.13835 v -1.243362 h -0.49083 v -0.105722 z"
       id="path55" /><path
       style="font-size:1.97069px;font-family:'Yu Gothic';-inkscape-font-specification:'Yu Gothic';display:inline;fill:#ff0000;stroke:#ff0000;stroke-width:0.162;stroke-linecap:round"
       d="m 113.97681,56.050512 v 0.105722 h -0.80337 v 0.471682 h 0.60663 v 0.105722 h -0.60663 v 0.560236 h 0.81874 v 0.105722 h -0.95708 v -1.349084 z"
       id="path54" /><path
       style="font-size:1.97069px;font-family:'Yu Gothic';-inkscape-font-specification:'Yu Gothic';fill:#ff0000;stroke:#ff0000;stroke-width:0.162;stroke-linecap:round"
       d="m 112.56067,56.050512 v 1.349084 h -0.1783 l -0.55231,-0.873787 q -0.0851,-0.139156 -0.21826,-0.369575 h -0.0204 q 0.004,0.28825 0.004,0.404816 v 0.838546 h -0.13013 v -1.349084 h 0.21416 l 0.52669,0.833124 q 0.0942,0.154517 0.21827,0.378611 h 0.0204 q -0.0144,-0.239455 -0.0144,-0.420176 v -0.791559 z"
       id="path53" /><path
       style="font-size:1.97069px;font-family:'Yu Gothic';-inkscape-font-specification:'Yu Gothic';display:inline;fill:#ff0000;fill-rule:nonzero;stroke:#ff0000;stroke-width:0.162;stroke-linecap:round"
       d="m 111.01644,56.389364 -0.13424,0.03524 c -0.0608,-0.19518 -0.19398,-0.292769 -0.39962,-0.292769 -0.15303,0 -0.27395,0.05814 -0.36275,0.174396 -0.0812,0.106023 -0.12194,0.246082 -0.12194,0.420177 0,0.199396 0.0506,0.352407 0.15166,0.459032 0.0854,0.08976 0.19572,0.134637 0.33097,0.134637 0.14619,0 0.25583,-0.05331 0.32893,-0.159938 0.0574,-0.08313 0.0871,-0.189456 0.0891,-0.318973 h -0.43242 v -0.103914 h 0.56256 v 0.665957 h -0.0984 l -0.0175,-0.229516 c -0.043,0.08675 -0.10689,0.151806 -0.19162,0.195179 -0.0731,0.03795 -0.15609,0.05692 -0.249,0.05692 -0.19606,0 -0.35113,-0.06897 -0.46522,-0.206926 -0.10382,-0.124698 -0.15575,-0.28825 -0.15575,-0.490658 0,-0.230721 0.069,-0.41114 0.20699,-0.541259 0.1134,-0.107228 0.25413,-0.160842 0.42218,-0.160842 0.14277,0 0.26267,0.03735 0.35967,0.112047 0.0812,0.06265 0.1402,0.146392 0.1764,0.25121 z"
       id="path52" /><path
       style="font-size:1.97069px;font-family:'Yu Gothic';-inkscape-font-specification:'Yu Gothic';fill:#ff0000;stroke:#ff0000;stroke-width:0.162;stroke-linecap:round"
       d="m 109.14534,56.050512 0.50518,1.349084 h -0.14653 l -0.16191,-0.445478 h -0.57691 l -0.166,0.445478 h -0.13833 l 0.5062,-1.349084 z m 0.16497,0.805112 -0.12706,-0.351502 q -0.0687,-0.183432 -0.12194,-0.357828 h -0.0195 q -0.0554,0.180722 -0.11886,0.356021 l -0.12605,0.353309 z"
       id="path51" /><path
       style="font-size:1.97069px;font-family:'Yu Gothic';-inkscape-font-specification:'Yu Gothic';display:inline;fill:#ff0000;stroke:#ff0000;stroke-width:0.162;stroke-linecap:round"
       d="m 108.13703,56.050512 v 1.349084 h -0.13219 v -0.84939 l 0.002,-0.399394 h -0.0235 q -0.0308,0.09217 -0.14449,0.392166 l -0.3443,0.856618 h -0.1783 l -0.33917,-0.856618 q -0.0749,-0.187951 -0.14756,-0.392166 h -0.0226 q -0.001,0.03886 -0.001,0.08132 l 0.003,0.319876 v 0.847583 h -0.12604 V 56.05051 h 0.23261 l 0.332,0.845775 q 0.082,0.206022 0.15063,0.39578 h 0.0215 q 0.11784,-0.309937 0.15063,-0.390358 l 0.33611,-0.851197 z"
       id="path50" /><path
       style="font-size:1.97069px;font-family:'Yu Gothic';-inkscape-font-specification:'Yu Gothic';fill:#ff0000;stroke:#ff0000;stroke-width:0.162;stroke-linecap:round"
       d="m 105.7485,56.050512 v 0.105722 h -0.80132 v 0.475296 h 0.60456 v 0.105723 h -0.60456 v 0.662343 h -0.13834 v -1.349084 z"
       id="path48" /><path
       style="font-size:1.97069px;font-family:'Yu Gothic';-inkscape-font-specification:'Yu Gothic';fill:#ff0000;stroke:#ff0000;stroke-width:0.162;stroke-linecap:round"
       d="m 103.69397,56.050512 v 1.243362 h 0.77877 v 0.105722 h -0.91711 v -1.349084 z"
       id="path47" /><path
       style="font-size:1.97069px;font-family:'Yu Gothic';-inkscape-font-specification:'Yu Gothic';fill:#ff0000;fill-opacity:1;stroke:#ff0000;stroke-width:0.1524;stroke-linecap:round;stroke-dasharray:none;stroke-opacity:1"
       d="m 102.00325,56.302505 v 0.652673 c 0,0.146987 0.0463,0.261202 0.13849,0.343132 0.0956,0.08494 0.22973,0.127641 0.40256,0.127641 0.14824,0 0.26951,-0.03304 0.36381,-0.0987 0.1189,-0.08253 0.17828,-0.20641 0.17828,-0.372071 v -0.652673 h -0.13229 v 0.337447 0.309542 c 0,0.116863 -0.0322,0.206584 -0.0971,0.269234 -0.0697,0.06746 -0.17257,0.101286 -0.30851,0.101286 -0.11818,0 -0.21161,-0.02579 -0.28061,-0.077 -0.084,-0.06265 -0.12609,-0.160391 -0.12609,-0.293522 v -0.646989 z"
       id="path65" /><path
       style="font-size:1.97069px;font-family:'Yu Gothic';-inkscape-font-specification:'Yu Gothic';fill:#ff0000;fill-opacity:1;stroke:none;stroke-width:0.0822648;stroke-linecap:round;stroke-dasharray:none;stroke-opacity:1"
       d="m 102.8771,55.971778 v 0.207225 h 0.28549 v -0.207225 z"
       id="path64" /><path
       style="font-size:1.97069px;font-family:'Yu Gothic';-inkscape-font-specification:'Yu Gothic';display:inline;fill:#ff0000;fill-opacity:1;stroke:none;stroke-width:0.0808472;stroke-linecap:round;stroke-dasharray:none;stroke-opacity:1"
       d="m 101.92705,55.971778 v 0.206706 h 0.28939 v -0.206706 z"
       id="text1" /><path
       style="display:inline;fill:#ff0000;fill-opacity:1;stroke-width:0.00950824;stroke-dasharray:none"
       d="m 102.96148,55.007954 c 4.5e-4,5.39e-4 0.001,0.0062 0.001,0.01244 7e-4,0.0223 0.002,0.04707 0.005,0.06937 7e-4,0.01251 0.001,0.0249 0.001,0.02757 -1.7e-4,0.01111 0.002,0.02838 0.005,0.02909 0.001,6.28e-4 7e-4,9.87e-4 -10e-6,0.0018 -0.001,8.46e-4 -7.1e-4,0.0435 10e-4,0.07787 3.5e-4,0.0034 0.001,0.03151 0.005,0.06268 10e-4,0.03116 0.005,0.07247 0.006,0.0918 10e-4,0.01933 0.002,0.04326 0.002,0.05317 4.4e-4,0.0099 0.001,0.01808 0.002,0.01822 7e-4,4e-5 0.021,-0.01739 0.0443,-0.03889 0.0233,-0.02137 0.055,-0.05063 0.0706,-0.06467 0.0156,-0.01405 0.0373,-0.03404 0.0483,-0.04416 l 0.0199,-0.01851 -10e-4,0.01639 c -0.002,0.01905 -0.0149,0.09194 -0.025,0.148776 -0.003,0.02179 -0.008,0.04625 -0.009,0.05433 -7.1e-4,0.0081 -10e-4,0.01474 -10e-4,0.01483 -4.4e-4,2.2e-5 -0.001,0.0081 -0.003,0.01743 -0.001,0.0096 -0.005,0.02888 -0.008,0.04298 -10e-4,0.0141 -0.006,0.03579 -0.009,0.04818 -10e-4,0.01243 -0.002,0.02293 -10e-4,0.02338 10e-4,6.26e-4 10e-4,0.0014 4e-5,0.0018 -0.003,0.002 -0.0149,0.07139 -0.0111,0.07247 10e-4,4.92e-4 10e-4,0.0013 -5.1e-4,0.0013 -0.001,5.47e-4 -0.005,0.0095 -0.006,0.02241 -0.001,0.01209 -0.008,0.04348 -0.0111,0.06984 -0.005,0.02637 -0.008,0.05013 -0.008,0.05281 1.1e-4,0.0027 -5.2e-4,0.0041 -0.001,0.0031 -0.001,-0.0016 -0.008,-0.03426 -0.006,-0.03808 7.1e-4,-0.0064 -0.003,-0.02703 -0.006,-0.02786 -0.001,-4.93e-4 -0.001,-0.0012 -4.4e-4,-0.0014 0.001,-2.74e-4 0.001,-0.0046 0.001,-0.0097 -5.1e-4,-0.0051 -0.005,-0.04098 -0.01,-0.07958 -0.005,-0.03859 -0.01,-0.08113 -0.0111,-0.09441 -0.001,-0.01328 -0.005,-0.0246 -0.006,-0.02511 -0.001,-4.92e-4 -0.001,-0.0012 -6.6e-4,-0.0022 10e-4,-5.91e-4 7.2e-4,-0.01405 -6.7e-4,-0.02989 -0.001,-0.02226 -0.003,-0.02822 -0.006,-0.02612 -0.001,0.0014 -0.0171,0.0124 -0.0335,0.02441 -0.0165,0.012 -0.0446,0.03278 -0.0626,0.046 -0.018,0.01322 -0.0333,0.02424 -0.0343,0.02416 -7.1e-4,-8.6e-5 2.1e-4,-0.02143 0.002,-0.04736 0.002,-0.02909 0.003,-0.04762 10e-4,-0.04828 -10e-4,-9.18e-4 -10e-4,-0.0012 5.6e-4,-0.0013 0.005,-6.46e-4 0.009,-0.03352 0.005,-0.03479 -0.001,-6.26e-4 -0.001,-0.0014 -5e-5,-0.0018 0.001,-0.001 0.008,-0.04113 0.0302,-0.28321 0.0186,-0.193937 0.0208,-0.213106 0.022,-0.211538 z"
       id="path61" /><path
       style="display:inline;fill:#ff0000;fill-opacity:1;stroke-width:0.00950824;stroke-dasharray:none"
       d="m 101.97961,55.005522 c 4.4e-4,5.4e-4 0.008,0.1159 0.01,0.151352 1e-4,0.0046 7.1e-4,0.01601 0.001,0.02532 7e-4,0.0093 10e-4,0.02106 10e-4,0.02611 3e-4,0.0053 0.001,0.0096 0.002,0.01015 10e-4,4.92e-4 10e-4,0.0013 5.6e-4,0.0023 -0.003,0.0018 0.002,0.111561 0.006,0.113641 0.001,6.81e-4 0.001,0.002 5.6e-4,0.0023 -0.001,2.77e-4 -0.001,0.01217 -7e-4,0.0266 7e-4,0.01441 0.001,0.03959 0.003,0.056 7.1e-4,0.01635 0.001,0.03055 0.002,0.03147 10e-4,0.0016 0.09,-0.07548 0.097,-0.08398 0.001,-0.0016 0.0185,-0.01739 0.0384,-0.03492 0.0198,-0.01754 0.0384,-0.03492 0.0413,-0.03838 0.002,-0.0035 0.006,-0.0053 0.006,-0.0042 5.7e-4,0.0013 -0.001,0.01383 -0.003,0.02792 -0.001,0.01411 -0.005,0.02647 -0.005,0.02752 -1.1e-4,0.002 -0.006,0.03487 -0.009,0.04726 -7.2e-4,0.0043 -0.002,0.01521 -0.003,0.02436 -0.001,0.0093 -0.003,0.02067 -0.005,0.02566 -10e-4,0.0048 -0.002,0.01427 -0.003,0.02067 -7.2e-4,0.0062 -0.006,0.03354 -0.01,0.06036 -0.0123,0.06936 -0.0175,0.101418 -0.0208,0.121679 -10e-4,0.0096 -0.005,0.02816 -0.008,0.04091 -0.001,0.01319 -0.002,0.0237 -7.2e-4,0.02423 0.001,4.45e-4 0.001,0.0012 -4.5e-4,0.0013 -0.001,5.01e-4 -0.005,0.0105 -0.008,0.02371 -0.001,0.01281 -0.005,0.02468 -0.005,0.02638 -10e-4,0.0048 -0.006,0.03024 -0.008,0.04454 -7.1e-4,0.0072 -0.003,0.02151 -0.005,0.03177 -0.001,0.0105 -0.005,0.02317 -0.005,0.02872 -7.1e-4,0.0054 -10e-4,0.01004 -0.002,0.0098 -7e-4,-6.9e-5 -0.001,-0.01106 -0.003,-0.02435 -0.001,-0.01335 -0.002,-0.02462 -0.002,-0.02511 -4e-4,-4.75e-4 -7e-4,-0.0075 -0.001,-0.01597 -7.2e-4,-0.0086 -0.002,-0.01563 -0.005,-0.01627 -0.001,-4.92e-4 -0.001,-0.0012 -7.1e-4,-0.0012 0.003,-5.8e-5 10e-4,-0.01881 -0.001,-0.02001 -0.001,-5.81e-4 -0.001,-0.0013 2.6e-4,-0.0012 0.001,-3.22e-4 0.001,-0.0045 0.001,-0.0093 -7e-4,-0.0049 -0.003,-0.02863 -0.006,-0.0527 -0.002,-0.02401 -0.006,-0.04441 -0.006,-0.04533 -7e-4,-10e-4 -5.4e-4,-0.0023 4.3e-4,-0.0031 7e-4,-8.47e-4 5.5e-4,-0.0041 -5.5e-4,-0.0068 -7e-4,-0.0029 -0.001,-0.0064 -0.001,-0.0077 2.3e-4,-0.0012 -0.001,-0.01778 -0.003,-0.03705 -0.001,-0.01928 -0.005,-0.04167 -0.006,-0.04986 -7e-4,-0.0084 -0.001,-0.01533 -0.002,-0.016 -0.001,-0.0022 -0.0125,0.005 -0.0717,0.04903 -0.0331,0.02495 -0.0613,0.0449 -0.0624,0.04481 -7.1e-4,-8.6e-5 0.001,-0.03953 0.008,-0.08763 0.005,-0.04815 0.0123,-0.121742 0.0163,-0.163594 0.005,-0.04186 0.006,-0.07648 0.005,-0.07695 -10e-4,-5.83e-4 -10e-4,-8.47e-4 3.6e-4,-0.0012 0.001,-3.21e-4 0.003,-0.0036 0.002,-0.0081 2.4e-4,-0.0038 0.005,-0.04602 0.009,-0.09328 0.005,-0.04727 0.008,-0.08634 0.006,-0.08679 -0.001,-5.82e-4 -0.001,-7.76e-4 2.4e-4,-0.0012 0.001,-3.2e-4 0.005,-0.02622 0.009,-0.05779 0.002,-0.03156 0.006,-0.05696 0.006,-0.05637 z"
       id="path20" /></g><g
     id="layer1"
     style="display:inline"
     transform="translate(-103.0311,-54.960468)"><rect
       style="display:inline;fill:none;stroke:#0000ff;stroke-width:0.0997117;stroke-linecap:round;stroke-dasharray:none;stroke-opacity:1"
       id="rect2"
       width="19.900288"
       height="128.40028"
       x="100.04985"
       y="50.049854" /></g></svg>
